<svg width="199" height="77" viewBox="0 0 199 77" fill="none" xmlns="http://www.w3.org/2000/svg">
<g opacity="0.3">
<path d="M3.39481 3.39492L3.39481 0.00012207L4.29153e-06 0.000121922L4.14314e-06 3.39492L3.39481 3.39492Z" fill="#221E21"/>
<path d="M3.39481 21.6623L3.39481 18.2675L4.29153e-06 18.2675L4.14314e-06 21.6623L3.39481 21.6623Z" fill="#221E21"/>
<path d="M3.39481 40.0911L3.39481 36.6963L4.29153e-06 36.6963L4.14314e-06 40.0911L3.39481 40.0911Z" fill="#221E21"/>
<path d="M3.39481 58.3584L3.39481 54.9636L4.29153e-06 54.9636L4.14314e-06 58.3584L3.39481 58.3584Z" fill="#221E21"/>
<path d="M3.39481 76.6255L3.39481 73.2307L4.29153e-06 73.2307L4.14314e-06 76.6255L3.39481 76.6255Z" fill="#221E21"/>
<path d="M22.9552 3.39492L22.9552 0.00012207L19.5604 0.000121922L19.5604 3.39492L22.9552 3.39492Z" fill="#221E21"/>
<path d="M22.9552 21.6624L22.9552 18.2676L19.5604 18.2676L19.5604 21.6624L22.9552 21.6624Z" fill="#221E21"/>
<path d="M22.9552 40.0911L22.9552 36.6963L19.5604 36.6963L19.5604 40.0911L22.9552 40.0911Z" fill="#221E21"/>
<path d="M22.9552 58.3584L22.9552 54.9636L19.5604 54.9636L19.5604 58.3584L22.9552 58.3584Z" fill="#221E21"/>
<path d="M22.9552 76.6255L22.9552 73.2307L19.5604 73.2307L19.5604 76.6255L22.9552 76.6255Z" fill="#221E21"/>
<path d="M42.5159 3.39492L42.5159 0.00012207L39.1211 0.000121922L39.1211 3.39492L42.5159 3.39492Z" fill="#221E21"/>
<path d="M42.5159 21.6624L42.5159 18.2676L39.1211 18.2676L39.1211 21.6624L42.5159 21.6624Z" fill="#221E21"/>
<path d="M42.5159 40.0911L42.5159 36.6963L39.1211 36.6963L39.1211 40.0911L42.5159 40.0911Z" fill="#221E21"/>
<path d="M42.5159 58.3584L42.5159 54.9636L39.1211 54.9636L39.1211 58.3584L42.5159 58.3584Z" fill="#221E21"/>
<path d="M42.5159 76.6255L42.5159 73.2307L39.1211 73.2307L39.1211 76.6255L42.5159 76.6255Z" fill="#221E21"/>
<path d="M62.0762 3.39492L62.0762 0.00012207L58.6814 0.000121922L58.6814 3.39492L62.0762 3.39492Z" fill="#221E21"/>
<path d="M62.0762 21.6624L62.0762 18.2676L58.6814 18.2676L58.6814 21.6624L62.0762 21.6624Z" fill="#221E21"/>
<path d="M62.0762 40.0911L62.0762 36.6963L58.6814 36.6963L58.6814 40.0911L62.0762 40.0911Z" fill="#221E21"/>
<path d="M62.0762 58.3584L62.0762 54.9636L58.6814 54.9636L58.6814 58.3584L62.0762 58.3584Z" fill="#221E21"/>
<path d="M62.0762 76.6255L62.0762 73.2307L58.6814 73.2307L58.6814 76.6255L62.0762 76.6255Z" fill="#221E21"/>
<path d="M81.6367 3.39492L81.6367 0.00012207L78.2419 0.000121922L78.2419 3.39492L81.6367 3.39492Z" fill="#221E21"/>
<path d="M81.6367 21.6624L81.6367 18.2676L78.2419 18.2676L78.2419 21.6624L81.6367 21.6624Z" fill="#221E21"/>
<path d="M81.6367 40.0911L81.6367 36.6963L78.2419 36.6963L78.2419 40.0911L81.6367 40.0911Z" fill="#221E21"/>
<path d="M81.6367 58.3584L81.6367 54.9636L78.2419 54.9636L78.2419 58.3584L81.6367 58.3584Z" fill="#221E21"/>
<path d="M81.6367 76.6255L81.6367 73.2307L78.2419 73.2307L78.2419 76.6255L81.6367 76.6255Z" fill="#221E21"/>
<path d="M101.197 3.39492L101.197 0.00012207L97.8026 0.000121922L97.8026 3.39492L101.197 3.39492Z" fill="#221E21"/>
<path d="M101.197 21.6624L101.197 18.2676L97.8026 18.2676L97.8026 21.6624L101.197 21.6624Z" fill="#221E21"/>
<path d="M101.197 40.0911L101.197 36.6963L97.8026 36.6963L97.8026 40.0911L101.197 40.0911Z" fill="#221E21"/>
<path d="M101.197 58.3584L101.197 54.9636L97.8026 54.9636L97.8026 58.3584L101.197 58.3584Z" fill="#221E21"/>
<path d="M101.197 76.6255L101.197 73.2307L97.8026 73.2307L97.8026 76.6255L101.197 76.6255Z" fill="#221E21"/>
<path d="M120.758 3.39492L120.758 0.00012207L117.363 0.000121922L117.363 3.39492L120.758 3.39492Z" fill="#221E21"/>
<path d="M120.758 21.6624L120.758 18.2676L117.363 18.2676L117.363 21.6624L120.758 21.6624Z" fill="#221E21"/>
<path d="M120.758 40.0911L120.758 36.6963L117.363 36.6963L117.363 40.0911L120.758 40.0911Z" fill="#221E21"/>
<path d="M120.758 58.3584L120.758 54.9636L117.363 54.9636L117.363 58.3584L120.758 58.3584Z" fill="#221E21"/>
<path d="M120.758 76.6255L120.758 73.2307L117.363 73.2307L117.363 76.6255L120.758 76.6255Z" fill="#221E21"/>
<path d="M140.318 3.3948L140.318 0L136.924 -1.48391e-07L136.924 3.3948L140.318 3.3948Z" fill="#221E21"/>
<path d="M140.318 21.6621L140.318 18.2673L136.924 18.2673L136.924 21.6621L140.318 21.6621Z" fill="#221E21"/>
<path d="M140.318 40.091L140.318 36.6962L136.924 36.6962L136.924 40.091L140.318 40.091Z" fill="#221E21"/>
<path d="M140.318 58.3584L140.318 54.9636L136.924 54.9636L136.924 58.3584L140.318 58.3584Z" fill="#221E21"/>
<path d="M140.318 76.6254L140.318 73.2306L136.924 73.2306L136.924 76.6254L140.318 76.6254Z" fill="#221E21"/>
<path d="M159.879 3.39492L159.879 0.00012207L156.484 0.000121922L156.484 3.39492L159.879 3.39492Z" fill="#221E21"/>
<path d="M159.879 21.6624L159.879 18.2676L156.484 18.2676L156.484 21.6624L159.879 21.6624Z" fill="#221E21"/>
<path d="M159.879 40.0911L159.879 36.6963L156.484 36.6963L156.484 40.0911L159.879 40.0911Z" fill="#221E21"/>
<path d="M159.879 58.3584L159.879 54.9636L156.484 54.9636L156.484 58.3584L159.879 58.3584Z" fill="#221E21"/>
<path d="M159.879 76.6255L159.879 73.2307L156.484 73.2307L156.484 76.6255L159.879 76.6255Z" fill="#221E21"/>
<path d="M179.439 3.39492L179.439 0.00012207L176.045 0.000121922L176.045 3.39492L179.439 3.39492Z" fill="#221E21"/>
<path d="M179.439 21.6624L179.439 18.2676L176.045 18.2676L176.045 21.6624L179.439 21.6624Z" fill="#221E21"/>
<path d="M179.439 40.0911L179.439 36.6963L176.045 36.6963L176.045 40.0911L179.439 40.0911Z" fill="#221E21"/>
<path d="M179.439 58.3584L179.439 54.9636L176.045 54.9636L176.045 58.3584L179.439 58.3584Z" fill="#221E21"/>
<path d="M179.439 76.6255L179.439 73.2307L176.045 73.2307L176.045 76.6255L179.439 76.6255Z" fill="#221E21"/>
<path d="M199 3.39492L199 0.00012207L195.605 0.000121922L195.605 3.39492L199 3.39492Z" fill="#221E21"/>
<path d="M199 21.6624L199 18.2676L195.605 18.2676L195.605 21.6624L199 21.6624Z" fill="#221E21"/>
<path d="M199 40.0911L199 36.6963L195.605 36.6963L195.605 40.0911L199 40.0911Z" fill="#221E21"/>
<path d="M199 58.3584L199 54.9636L195.605 54.9636L195.605 58.3584L199 58.3584Z" fill="#221E21"/>
<path d="M199 76.6255L199 73.2307L195.605 73.2307L195.605 76.6255L199 76.6255Z" fill="#221E21"/>
</g>
</svg>
