<svg width="33" height="33" viewBox="0 0 33 33" fill="none" xmlns="http://www.w3.org/2000/svg">
<g clip-path="url(#clip0_351_4846)">
<path fill-rule="evenodd" clip-rule="evenodd" d="M20.1636 10.6606L18.657 10.6616C17.4755 10.6616 17.2464 11.2228 17.2464 12.0462V13.8629H20.0646L19.6974 16.7092H17.2464V24.0103H14.3081V16.7092H11.8511V13.8629H14.3081V11.765C14.3081 9.32899 15.7958 8.00342 17.9677 8.00342C19.0081 8.00342 19.9025 8.08046 20.1636 8.11547V10.6606ZM16.0068 0C7.16707 0 0 7.16607 0 16.0068C0 24.8466 7.16707 32.0137 16.0068 32.0137C24.8476 32.0137 32.0137 24.8466 32.0137 16.0068C32.0137 7.16607 24.8476 0 16.0068 0Z" fill="#3B5998"/>
</g>
<defs>
<clipPath id="clip0_351_4846">
<rect width="32.0137" height="32.0137" fill="white"/>
</clipPath>
</defs>
</svg>
