<svg width="33" height="33" viewBox="0 0 33 33" fill="none" xmlns="http://www.w3.org/2000/svg">
<g clip-path="url(#clip0_351_4856)">
<path fill-rule="evenodd" clip-rule="evenodd" d="M24.9966 23.9953H21.6802V18.805C21.6802 17.5675 21.6581 15.9758 19.9564 15.9758C18.2307 15.9758 17.9676 17.3244 17.9676 18.717V23.9953H14.6541V13.3227H17.8335V14.7823H17.8795C18.3217 13.943 19.4042 13.0576 21.0179 13.0576C24.3763 13.0576 24.9966 15.2675 24.9966 18.1418V23.9953ZM10.9145 11.8651C9.84909 11.8651 8.98972 11.0027 8.98972 9.94125C8.98972 8.8798 9.84909 8.01743 10.9145 8.01743C11.975 8.01743 12.8364 8.8798 12.8364 9.94125C12.8364 11.0027 11.975 11.8651 10.9145 11.8651ZM12.5733 23.9953H9.25283V13.3227H12.5733V23.9953ZM16.9931 0C8.15236 0 0.986298 7.16607 0.986298 16.0068C0.986298 24.8466 8.15236 32.0137 16.9931 32.0137C25.8339 32.0137 33 24.8466 33 16.0068C33 7.16607 25.8339 0 16.9931 0Z" fill="#2E78B6"/>
</g>
<defs>
<clipPath id="clip0_351_4856">
<rect width="32.0137" height="32.0137" fill="white" transform="translate(0.986298)"/>
</clipPath>
</defs>
</svg>
