<svg width="33" height="33" viewBox="0 0 33 33" fill="none" xmlns="http://www.w3.org/2000/svg">
<g clip-path="url(#clip0_351_4851)">
<path fill-rule="evenodd" clip-rule="evenodd" d="M22.8647 12.7425C22.8707 12.8835 22.8747 13.0246 22.8747 13.1676C22.8747 17.5065 19.5713 22.5106 13.5307 22.5106C11.6759 22.5106 9.95021 21.9674 8.49659 21.036C8.7537 21.066 9.01481 21.081 9.27992 21.081C10.8186 21.081 12.2342 20.5568 13.3587 19.6754C11.9211 19.6494 10.7085 18.7 10.2904 17.3954C10.4914 17.4335 10.6965 17.4535 10.9086 17.4535C11.2077 17.4535 11.4979 17.4135 11.774 17.3384C10.2713 17.0373 9.13986 15.7097 9.13986 14.119V14.077C9.58205 14.3231 10.0893 14.4712 10.6275 14.4882C9.74612 13.8989 9.16587 12.8935 9.16587 11.755C9.16587 11.1528 9.32794 10.5885 9.61107 10.1033C11.2308 12.0902 13.6508 13.3977 16.38 13.5348C16.3239 13.2947 16.2949 13.0436 16.2949 12.7865C16.2949 10.9727 17.7656 9.50207 19.5783 9.50207C20.5237 9.50207 21.3771 9.90124 21.9754 10.5395C22.7237 10.3924 23.427 10.1193 24.0612 9.74317C23.8161 10.5095 23.2949 11.1528 22.6176 11.5599C23.2819 11.4799 23.9142 11.3038 24.5034 11.0427C24.0632 11.701 23.506 12.2793 22.8647 12.7425ZM16.5 0C7.65923 0 0.493164 7.16607 0.493164 16.0068C0.493164 24.8466 7.65923 32.0137 16.5 32.0137C25.3408 32.0137 32.5069 24.8466 32.5069 16.0068C32.5069 7.16607 25.3408 0 16.5 0" fill="#41A1F2"/>
</g>
<defs>
<clipPath id="clip0_351_4851">
<rect width="32.0137" height="32.0137" fill="white" transform="translate(0.493164)"/>
</clipPath>
</defs>
</svg>
