<svg width="242" height="32" viewBox="0 0 242 32" fill="none" xmlns="http://www.w3.org/2000/svg">
<path d="M0 5.396H3.879V27.291H0V5.396Z" fill="#414141"/>
<path d="M9.69598 5.396H13.825L20.456 15.78L27.149 5.396H31.215V27.291H27.396V11.589L20.456 21.911H20.331L13.512 11.652V27.291H9.69598V5.396Z" fill="#414141"/>
<path d="M45.166 16.781C48.044 16.781 49.858 15.155 49.858 12.902V12.839C49.858 10.274 48.044 8.96 45.166 8.96H40.725V16.842H45.166V16.781ZM36.846 5.396H45.479C50.609 5.396 53.799 8.274 53.799 12.715V12.778C53.799 17.657 49.858 20.222 45.041 20.222H40.725V27.228H36.909V5.396H36.846Z" fill="#414141"/>
<path d="M84.077 8.962H77.133V5.396H94.833V8.962H87.952V27.291H84.074L84.077 8.962Z" fill="#414141"/>
<path d="M98.589 18.032V5.396H102.405V17.845C102.405 21.911 104.469 24.038 107.91 24.038C111.288 24.038 113.41 22.038 113.41 17.97V5.396H117.226V17.782C117.226 24.288 113.535 27.603 107.843 27.603C102.213 27.666 98.585 24.35 98.585 18.032" fill="#414141"/>
<path d="M121.11 24.101L123.425 21.349C125.27 23.139 127.735 24.1474 130.306 24.164C132.683 24.164 134.185 23.038 134.185 21.412V21.346C134.185 19.782 133.309 18.969 129.243 18.03C124.614 16.904 121.986 15.53 121.986 11.524V11.464C121.986 7.71099 125.114 5.14599 129.43 5.14599C132.323 5.07774 135.144 6.05481 137.375 7.89799L135.31 10.776C133.624 9.40374 131.539 8.61375 129.367 8.52399C127.115 8.52399 125.801 9.64999 125.801 11.089V11.152C125.801 12.841 126.801 13.592 130.993 14.593C135.622 15.719 137.999 17.345 137.999 20.974V21.037C137.999 25.103 134.809 27.543 130.179 27.543C126.825 27.6095 123.574 26.3765 121.108 24.102" fill="#414141"/>
<path d="M74.13 7.14699C74.1098 7.38931 74.0421 7.62528 73.9306 7.84138C73.8191 8.05748 73.6661 8.24947 73.4803 8.40635C73.2946 8.56324 73.0797 8.68195 72.848 8.75567C72.6162 8.82939 72.3723 8.85669 72.13 8.83599H59.74C59.4977 8.85669 59.2537 8.82939 59.022 8.75567C58.7903 8.68195 58.5754 8.56324 58.3896 8.40635C58.2039 8.24947 58.0509 8.05748 57.9394 7.84138C57.8279 7.62528 57.7601 7.38931 57.74 7.14699C57.7601 6.90467 57.8279 6.66871 57.9394 6.45261C58.0509 6.23651 58.2039 6.04452 58.3896 5.88763C58.5754 5.73074 58.7903 5.61204 59.022 5.53832C59.2537 5.46459 59.4977 5.4373 59.74 5.45799H72.064C72.3108 5.43093 72.5606 5.45336 72.7987 5.52397C73.0368 5.59458 73.2584 5.71195 73.4506 5.86921C73.6427 6.02648 73.8016 6.22048 73.918 6.43988C74.0343 6.65928 74.1057 6.89967 74.128 7.14699" fill="#414141"/>
<path d="M74.13 25.602C74.1099 25.8443 74.0421 26.0803 73.9306 26.2964C73.8191 26.5125 73.6661 26.7045 73.4804 26.8613C73.2946 27.0182 73.0797 27.1369 72.848 27.2107C72.6163 27.2844 72.3723 27.3117 72.13 27.291H59.74C59.4944 27.3325 59.2426 27.32 59.0023 27.2543C58.762 27.1885 58.5389 27.0712 58.3486 26.9104C58.1583 26.7496 58.0054 26.5492 57.9005 26.3232C57.7956 26.0972 57.7413 25.8511 57.7413 25.602C57.7413 25.3528 57.7956 25.1067 57.9005 24.8807C58.0054 24.6548 58.1583 24.4544 58.3486 24.2936C58.5389 24.1328 58.762 24.0154 59.0023 23.9497C59.2426 23.8839 59.4944 23.8714 59.74 23.913H72.064C72.3109 23.8859 72.5606 23.9083 72.7987 23.979C73.0368 24.0496 73.2584 24.1669 73.4506 24.3242C73.6428 24.4815 73.8017 24.6755 73.918 24.8949C74.0343 25.1143 74.1057 25.3547 74.128 25.602" fill="#414141"/>
<path d="M74.13 16.343C74.1098 16.5853 74.0421 16.8213 73.9306 17.0374C73.8191 17.2535 73.6661 17.4455 73.4803 17.6024C73.2946 17.7592 73.0797 17.8779 72.848 17.9517C72.6162 18.0254 72.3723 18.0527 72.13 18.032H59.74C59.4977 18.0527 59.2537 18.0254 59.022 17.9517C58.7903 17.8779 58.5754 17.7592 58.3896 17.6024C58.2039 17.4455 58.0509 17.2535 57.9394 17.0374C57.8279 16.8213 57.7601 16.5853 57.74 16.343C57.7601 16.1007 57.8279 15.8647 57.9394 15.6486C58.0509 15.4325 58.2039 15.2405 58.3896 15.0836C58.5754 14.9267 58.7903 14.808 59.022 14.7343C59.2537 14.6606 59.4977 14.6333 59.74 14.654H72.064C72.5604 14.6107 73.054 14.7631 73.4396 15.0786C73.8252 15.3941 74.0722 15.8479 74.128 16.343" fill="#414141"/>
<path d="M171.606 24.812C170.601 24.8233 169.606 24.6101 168.694 24.188C167.811 23.7731 167.034 23.1643 166.419 22.407C165.754 21.5742 165.255 20.6212 164.95 19.6C164.589 18.3987 164.414 17.1493 164.43 15.895C164.414 14.6526 164.594 13.4154 164.963 12.229C165.279 11.2106 165.786 10.2619 166.458 9.434C167.08 8.67731 167.867 8.07262 168.758 7.666C169.695 7.24949 170.71 7.04103 171.735 7.055C172.658 7.03517 173.57 7.24988 174.387 7.679C175.078 8.03784 175.695 8.52287 176.207 9.109L175.507 9.915C175.048 9.38509 174.492 8.94818 173.869 8.628C173.216 8.30056 172.493 8.13555 171.763 8.147C170.887 8.13381 170.02 8.32055 169.228 8.693C168.475 9.05393 167.816 9.58286 167.3 10.239C166.744 10.9633 166.334 11.789 166.094 12.67C165.804 13.7197 165.664 14.8051 165.678 15.894C165.664 16.9872 165.805 18.0768 166.094 19.131C166.336 20.0183 166.743 20.8519 167.294 21.588C167.794 22.2478 168.437 22.7856 169.175 23.161C169.947 23.5417 170.798 23.7333 171.658 23.72C172.478 23.7346 173.29 23.5518 174.024 23.187C174.773 22.7877 175.443 22.2545 176 21.614L176.7 22.368C176.081 23.0983 175.332 23.7067 174.49 24.162C173.597 24.6134 172.606 24.8367 171.606 24.812ZM182.786 24.812C182.31 24.8147 181.836 24.7432 181.382 24.6C180.964 24.4705 180.575 24.2599 180.238 23.98C179.899 23.6897 179.632 23.3248 179.458 22.914C179.257 22.4281 179.16 21.9056 179.172 21.38C179.158 20.7232 179.333 20.0763 179.677 19.5162C180.02 18.9562 180.517 18.5066 181.109 18.221C183.037 17.3306 185.113 16.806 187.232 16.674C187.233 16.1999 187.199 15.7263 187.132 15.257C187.072 14.8069 186.922 14.3736 186.69 13.983C186.465 13.6105 186.153 13.2982 185.78 13.073C185.319 12.8194 184.797 12.6979 184.272 12.722C183.482 12.7129 182.7 12.8817 181.984 13.216C181.393 13.4863 180.828 13.8082 180.294 14.178L179.774 13.32C179.999 13.164 180.272 12.9907 180.593 12.8C180.938 12.5976 181.299 12.4237 181.672 12.28C182.096 12.1172 182.53 11.9836 182.972 11.88C183.449 11.7663 183.938 11.7096 184.428 11.711C185.064 11.6917 185.696 11.8207 186.274 12.088C186.759 12.3248 187.179 12.6775 187.496 13.115C187.819 13.5727 188.049 14.0896 188.172 14.636C188.315 15.254 188.385 15.8867 188.38 16.521V24.5H187.392L187.292 22.888H187.214C186.564 23.3953 185.869 23.8434 185.139 24.227C184.415 24.6138 183.607 24.8148 182.786 24.812ZM182.994 23.824C183.72 23.8246 184.434 23.646 185.074 23.304C185.845 22.8808 186.568 22.3767 187.232 21.8V17.558C186.138 17.6803 185.052 17.8714 183.982 18.13C183.238 18.3013 182.521 18.5724 181.85 18.936C181.379 19.1854 180.981 19.5518 180.693 20C180.458 20.4021 180.337 20.8604 180.342 21.326C180.331 21.7177 180.402 22.1073 180.55 22.47C180.678 22.7672 180.874 23.03 181.122 23.237C181.371 23.4397 181.658 23.59 181.967 23.679C182.301 23.7768 182.646 23.8257 182.994 23.824ZM192.822 24.5V12.02H193.81L193.91 14.334H193.988C194.362 13.6049 194.88 12.9587 195.509 12.434C196.073 11.9607 196.787 11.7028 197.524 11.706C197.742 11.7039 197.959 11.7214 198.174 11.758C198.383 11.7985 198.585 11.8685 198.774 11.966L198.514 13.006C198.339 12.9293 198.156 12.8727 197.968 12.837C197.769 12.808 197.569 12.7949 197.368 12.798C196.72 12.8342 196.102 13.0859 195.613 13.513C194.862 14.189 194.295 15.0448 193.966 16V24.5H192.822ZM205.536 24.812C204.764 24.8171 203.999 24.6667 203.287 24.37C202.59 24.0788 201.965 23.6397 201.454 23.083C200.913 22.4849 200.494 21.7873 200.219 21.029C199.903 20.1496 199.749 19.2203 199.764 18.286C199.75 17.3475 199.904 16.4141 200.219 15.53C200.49 14.7691 200.905 14.0674 201.441 13.463C201.929 12.9173 202.521 12.4752 203.183 12.163C203.813 11.8642 204.501 11.7088 205.198 11.708C205.859 11.6756 206.519 11.7946 207.127 12.056C207.736 12.3173 208.276 12.7141 208.708 13.216C209.627 14.44 210.079 15.9522 209.982 17.48V17.948C209.982 18.1054 209.964 18.2624 209.93 18.416H200.93C200.942 19.1543 201.067 19.8864 201.3 20.587C201.503 21.2134 201.825 21.795 202.247 22.3C202.651 22.7739 203.152 23.1552 203.716 23.418C204.32 23.6924 204.977 23.829 205.64 23.818C206.264 23.8264 206.884 23.7248 207.473 23.518C208.017 23.3198 208.529 23.0439 208.994 22.699L209.462 23.583C208.929 23.8931 208.377 24.1709 207.811 24.415C207.087 24.7002 206.313 24.8353 205.536 24.812ZM200.936 17.48H208.89C208.988 16.2017 208.639 14.9292 207.902 13.88C207.576 13.491 207.165 13.1822 206.701 12.9775C206.236 12.7729 205.731 12.678 205.224 12.7C204.695 12.6981 204.172 12.8089 203.69 13.025C203.193 13.25 202.747 13.5728 202.377 13.974C201.97 14.4162 201.645 14.9267 201.415 15.482C201.152 16.1191 200.99 16.7931 200.934 17.48H200.936ZM218.094 24.812C217.322 24.8171 216.557 24.6667 215.845 24.37C215.148 24.0788 214.523 23.6397 214.012 23.083C213.471 22.4849 213.052 21.7873 212.777 21.029C212.461 20.1496 212.307 19.2203 212.322 18.286C212.308 17.3475 212.462 16.4141 212.777 15.53C213.049 14.7691 213.464 14.0674 214 13.463C214.488 12.9173 215.08 12.4752 215.742 12.163C216.372 11.8642 217.06 11.7088 217.757 11.708C218.418 11.6756 219.078 11.7946 219.686 12.056C220.295 12.3173 220.835 12.7141 221.267 13.216C222.186 14.4402 222.638 15.9524 222.54 17.48V17.948C222.54 18.1054 222.522 18.2624 222.488 18.416H213.488C213.498 19.154 213.621 19.8861 213.852 20.587C214.057 21.2139 214.38 21.7955 214.805 22.3C215.209 22.7739 215.71 23.1552 216.274 23.418C216.878 23.6924 217.535 23.829 218.198 23.818C218.822 23.8264 219.442 23.7248 220.031 23.518C220.575 23.3198 221.087 23.0439 221.552 22.699L222.02 23.583C221.487 23.8931 220.935 24.1709 220.369 24.415C219.645 24.7002 218.871 24.8353 218.094 24.812ZM213.494 17.48H221.45C221.548 16.2017 221.199 14.9292 220.462 13.88C220.136 13.4907 219.725 13.1817 219.26 12.9771C218.795 12.7725 218.289 12.6776 217.782 12.7C217.253 12.6981 216.73 12.8089 216.248 13.025C215.751 13.25 215.305 13.5728 214.935 13.974C214.528 14.4162 214.203 14.9267 213.973 15.482C213.71 16.1191 213.548 16.7931 213.492 17.48H213.494ZM225.92 24.5V12.02H226.908L227.008 14.334H227.086C227.46 13.6049 227.978 12.9587 228.607 12.434C229.171 11.9607 229.885 11.7028 230.622 11.706C230.84 11.7039 231.057 11.7214 231.272 11.758C231.481 11.7985 231.683 11.8685 231.872 11.966L231.612 13.006C231.437 12.9293 231.254 12.8727 231.066 12.837C230.867 12.808 230.667 12.7949 230.466 12.798C229.818 12.8342 229.2 13.0859 228.711 13.513C227.96 14.189 227.393 15.0448 227.064 16V24.5H225.92ZM237.178 24.812C236.293 24.8214 235.415 24.647 234.6 24.3C233.878 23.9966 233.204 23.5893 232.6 23.091L233.276 22.233C233.802 22.676 234.378 23.0556 234.992 23.364C235.701 23.6888 236.475 23.8446 237.254 23.819C237.655 23.8499 238.059 23.8002 238.44 23.673C238.822 23.5457 239.175 23.3434 239.477 23.078C239.712 22.8556 239.899 22.5875 240.026 22.2902C240.154 21.9928 240.219 21.6725 240.218 21.349C240.225 20.992 240.13 20.6404 239.945 20.335C239.76 20.0376 239.517 19.7811 239.23 19.581C238.924 19.3667 238.598 19.1838 238.255 19.035C237.9 18.879 237.54 18.7317 237.176 18.593C236.709 18.4197 236.237 18.2377 235.759 18.047C235.305 17.8683 234.873 17.6371 234.472 17.358C234.103 17.1023 233.789 16.7752 233.549 16.396C233.306 15.9849 233.185 15.5133 233.2 15.036C233.198 14.5938 233.287 14.1559 233.46 13.749C233.635 13.3389 233.902 12.9743 234.24 12.683C234.611 12.366 235.039 12.1232 235.501 11.968C236.059 11.7848 236.643 11.6969 237.23 11.708C237.893 11.7087 238.549 11.8321 239.167 12.072C239.758 12.2902 240.307 12.6067 240.792 13.008L240.168 13.814C239.755 13.5038 239.311 13.238 238.842 13.021C238.318 12.7929 237.75 12.682 237.178 12.696C236.754 12.6861 236.331 12.7521 235.93 12.891C235.611 13.0048 235.316 13.1767 235.059 13.398C234.831 13.597 234.653 13.8462 234.539 14.126C234.429 14.3897 234.372 14.6723 234.37 14.958C234.359 15.2833 234.445 15.6045 234.617 15.881C234.793 16.1432 235.018 16.3685 235.28 16.544C235.578 16.7456 235.896 16.9156 236.229 17.051C236.584 17.1983 236.944 17.3413 237.308 17.48L238.764 18.052C239.229 18.231 239.67 18.466 240.077 18.752C240.462 19.0239 240.785 19.3738 241.026 19.779C241.283 20.2436 241.409 20.7694 241.39 21.3C241.392 21.7603 241.299 22.216 241.117 22.639C240.932 23.069 240.653 23.4518 240.3 23.759C239.91 24.095 239.46 24.3552 238.974 24.526C238.397 24.7261 237.789 24.8229 237.178 24.812Z" fill="#5B5B5B"/>
<path opacity="0.38" d="M150.5 0V32" stroke="#707070"/>
</svg>
